<svg id="Azell" xmlns="http://www.w3.org/2000/svg" width="81" height="65.318" viewBox="0 0 81 65.318">
  <g id="Group_12" data-name="Group 12">
    <g id="Group_11" data-name="Group 11" transform="translate(0 38.753)">
      <path id="Path_72" data-name="Path 72" d="M926.047,350.728a14.214,14.214,0,0,0-1.121,3.011,1.423,1.423,0,0,0,.656,1.531,4.284,4.284,0,0,0,1.367.534c.109.028.22.051.349.081v.383h-6.317l-.024-.344c.106-.042.2-.083.289-.113a3.517,3.517,0,0,0,2.06-1.629,22.173,22.173,0,0,0,1.027-2.022q3.5-8.035,6.972-16.079a1.825,1.825,0,0,0,.182-.986,5.045,5.045,0,0,1,0-.606c1.624-.9,3.323-1.69,5-2.563a21.873,21.873,0,0,0,1.354,3.787q3.317,8.415,6.664,16.819a12.21,12.21,0,0,0,1.082,2.205,2.318,2.318,0,0,0,1.651,1.094,2.376,2.376,0,0,1,.247.062c.017.034.036.056.037.079,0,.087,0,.174,0,.287h-11.01c-.007-.112-.013-.218-.02-.337a.765.765,0,0,1,.146-.06c.435-.073.876-.119,1.305-.217a1.743,1.743,0,0,0,1.44-1.516,1.94,1.94,0,0,0-.07-.893c-.288-.845-.627-1.672-.947-2.508Zm.393-.973c.443.084,11.213.071,11.53-.013l-5.547-13.814-5.983,13.826" transform="translate(-920.957 -329.964)" fill="#101820"/>
      <path id="Path_73" data-name="Path 73" d="M2290.254,320.467v.39h-6.95c.083-.6.164-1.161.235-1.72a6,6,0,0,0,.064-.753q.005-9.566,0-19.132a3.431,3.431,0,0,0-.025-.491c-.05-.345-.209-.508-.557-.486a8.781,8.781,0,0,0-1.233.176c-.38.079-.751.2-1.164.319v-.516l7.99-3.72c-.051.517-.1.964-.137,1.412-.02.213-.043.427-.043.641q0,10.418,0,20.837a11.5,11.5,0,0,0,.131,1.5,1.627,1.627,0,0,0,1.23,1.389l.453.149" transform="translate(-2209.255 -294.535)" fill="#101820"/>
      <path id="Path_74" data-name="Path 74" d="M2098.689,320.5v.359h-6.944a2.527,2.527,0,0,1,0-.331c.08-.587.169-1.173.25-1.761a3.014,3.014,0,0,0,.023-.415q0-9.468,0-18.936a3.816,3.816,0,0,0-.047-.64c-.06-.357-.207-.5-.562-.476a8.969,8.969,0,0,0-1.232.18c-.381.079-.753.2-1.156.315v-.515l7.99-3.72c-.026.308-.052.564-.067.822-.04.641-.107,1.283-.108,1.925q-.012,10.074,0,20.148a12.143,12.143,0,0,0,.111,1.394,1.692,1.692,0,0,0,1.33,1.52c.133.039.263.083.413.131" transform="translate(-2027.707 -294.558)" fill="#101820"/>
      <path id="Path_75" data-name="Path 75" d="M1785.6,489.529c.039.467.059.892.113,1.312a7.7,7.7,0,0,0,1.059,3.131,5.827,5.827,0,0,0,5.046,2.913,10.953,10.953,0,0,0,1.885-.11,4.441,4.441,0,0,0,3.118-1.71l.407.293c-.071.126-.132.246-.2.36a5.436,5.436,0,0,1-1.618,1.625,8.8,8.8,0,0,1-3.833,1.423,12.023,12.023,0,0,1-4.917-.287,7.983,7.983,0,0,1-5.218-4.227,7.834,7.834,0,0,1-.752-3.635,7.656,7.656,0,0,1,3.4-6.5,9.791,9.791,0,0,1,2.871-1.418,10.929,10.929,0,0,1,5.94-.2,5.136,5.136,0,0,1,3.526,2.8,3.068,3.068,0,0,1,.127,2.532,2.437,2.437,0,0,1-2.048,1.635,6.082,6.082,0,0,1-.867.06q-3.769.007-7.537,0h-.5m.025-.9c.13.006.2.014.279.013,1.261-.008,2.522-.015,3.783-.028.655-.007,1.311-.024,1.966-.036a.908.908,0,0,0,.869-.614,1.65,1.65,0,0,0,.1-.324,3.982,3.982,0,0,0-1-3.577,2.892,2.892,0,0,0-4.476.043,5.292,5.292,0,0,0-.979,1.65,8.694,8.694,0,0,0-.545,2.874" transform="translate(-1735.561 -472.326)" fill="#101820"/>
      <path id="Path_76" data-name="Path 76" d="M1454.426,496.663l-.917,5.952h-14.922l-.019-.051c.084-.039.166-.085.253-.117a3.7,3.7,0,0,0,1.341-.9,13.236,13.236,0,0,0,1.94-2.513c.88-1.444,1.732-2.9,2.582-4.366q2.056-3.534,4.094-7.078c.067-.116.127-.237.214-.4-.146-.007-.241-.017-.337-.015-1.047.017-2.1,0-3.141.067a8.719,8.719,0,0,0-1.743.323,4.376,4.376,0,0,0-2.307,1.571,10.164,10.164,0,0,0-1.359,2.4,5.248,5.248,0,0,1-.438.881l.917-5.958c.281-.079,14.187-.105,14.749-.029,0,.1.01.212.015.315-.045.032-.073.064-.106.072a2.412,2.412,0,0,0-1.309.857,15.56,15.56,0,0,0-1.179,1.62c-.966,1.583-1.9,3.185-2.839,4.786q-2.153,3.675-4.292,7.358c-.063.108-.123.218-.2.362a1.66,1.66,0,0,0,.266.043c.934-.014,1.87,0,2.8-.061a9.919,9.919,0,0,0,1.82-.322,4.407,4.407,0,0,0,2.413-1.672,10.2,10.2,0,0,0,1.255-2.24q.189-.45.377-.9l.075.018" transform="translate(-1411.398 -476.314)" fill="#101820"/>
    </g>
    <g id="Group_13" data-name="Group 13" transform="translate(29.888)">
      <path id="Path_77" data-name="Path 77" d="M0,2.171a1.42,1.42,0,0,0,.1-.232c.113-.5.22-1,.331-1.5C.439.384.458.333.473.285A2.14,2.14,0,0,1,2.8,2.346c0,.734,0,1.469,0,2.2V4.83l.33.042a2.351,2.351,0,0,1,1.541.8,1.788,1.788,0,0,1,.455,1.214q0,1.137,0,2.274c0,.085.017.169.026.255l0,0a1.237,1.237,0,0,1-.652-.024,2.72,2.72,0,0,1-1.63-.938,2.081,2.081,0,0,1-.462-1.839c.1-.486.209-.972.313-1.458.018-.084.032-.168.053-.278l-.356-.039A2.839,2.839,0,0,1,.7,4.025,2.244,2.244,0,0,1,.091,2.97.938.938,0,0,0,0,2.788V2.171" transform="translate(0 -0.265)" fill="#2d2a26"/>
      <path id="Path_78" data-name="Path 78" d="M0,353.933l1.112.01a3.183,3.183,0,0,1,3.041,2.308,2.38,2.38,0,0,1,.112.832c-.021.014-.034.03-.046.03a6.393,6.393,0,0,1-1.836-.1,3.135,3.135,0,0,1-2.29-2.441A2.448,2.448,0,0,0,0,354.313v-.38" transform="translate(0 -342.298)" fill="#2d2a26"/>
      <path id="Path_79" data-name="Path 79" d="M121.179,684.846c-.1-.079-.155-.12-.207-.166q-3.265-2.879-6.531-5.757a.339.339,0,0,1-.13-.346c.208-1.423.408-2.847.61-4.271q.237-1.666.475-3.333a.341.341,0,0,1,.022-.064,18.22,18.22,0,0,1,3.371,4.358,19.093,19.093,0,0,1,2.39,9.578" transform="translate(-110.547 -648.855)" fill="#2d2a26"/>
      <path id="Path_80" data-name="Path 80" d="M490.086,9.152c.005-.11.014-.22.014-.33,0-.672,0-1.344,0-2.016a2.073,2.073,0,0,1,1.721-2.149c.192-.043.389-.062.609-.1V4.307c0-.743.005-1.486,0-2.229a1.87,1.87,0,0,1,.725-1.528A2.408,2.408,0,0,1,494.741,0a.886.886,0,0,1,.054.134q.172.787.341,1.574a2.146,2.146,0,0,1-.757,2.188,2.8,2.8,0,0,1-1.613.673c-.1.01-.2.021-.322.034.085.4.165.773.246,1.149.041.193.085.386.125.579A2.1,2.1,0,0,1,492.2,8.35a2.82,2.82,0,0,1-2.009.825.429.429,0,0,1-.111-.028Z" transform="translate(-473.97 -0.001)" fill="#2d2a26"/>
      <path id="Path_81" data-name="Path 81" d="M226.132,419.062a1.05,1.05,0,0,1,1,.508,1.613,1.613,0,0,1,.163.341,17.377,17.377,0,0,1,1.138,4.705c.051.542.066,1.088.1,1.632,0,.054,0,.109,0,.159a8.036,8.036,0,0,0,1.584.023c0-.072.012-.148.013-.225a17.992,17.992,0,0,1,1.247-6.336,1.2,1.2,0,0,1,.867-.8,1.5,1.5,0,0,1,.28-.014l-.008-.008a20.157,20.157,0,0,0-1.191,3.888,21.272,21.272,0,0,0-.4,4.025,1.587,1.587,0,0,1-3.157.261c-.032-.274-.029-.552-.036-.828a20.5,20.5,0,0,0-1.53-7.238,1.113,1.113,0,0,0-.055-.1Z" transform="translate(-218.698 -405.274)" fill="#2d2a26"/>
      <path id="Path_82" data-name="Path 82" d="M145.505,282.759a3.215,3.215,0,0,1-1.453-.371,2.322,2.322,0,0,1-1.255-1.63,1.994,1.994,0,0,1-.015-.7c.11-.613.255-1.219.389-1.828a.488.488,0,0,1,.05-.1l0,0c.139.022.278.044.417.068a2.322,2.322,0,0,1,1.531.907,1.663,1.663,0,0,1,.35.99c.006.862,0,1.724,0,2.586a.437.437,0,0,1-.019.092l.006-.007" transform="translate(-138.065 -268.979)" fill="#2d2a26"/>
      <path id="Path_83" data-name="Path 83" d="M422.257,278.235c.064.259.13.517.19.777.072.315.141.631.208.947a2.167,2.167,0,0,1-.845,2.282,2.947,2.947,0,0,1-1.848.623l.008.008a.162.162,0,0,1-.014-.045c0-.9-.014-1.8.007-2.695a1.721,1.721,0,0,1,.619-1.235,2.5,2.5,0,0,1,1.5-.631c.062-.006.124-.017.185-.026l-.007-.006" transform="translate(-406.147 -269.089)" fill="#2d2a26"/>
      <path id="Path_84" data-name="Path 84" d="M520.972,354.216a2.831,2.831,0,0,1-.361,1.491,3.1,3.1,0,0,1-2.8,1.688c-.346.007-.693,0-1.048,0a1.379,1.379,0,0,1,.037-.641,3.183,3.183,0,0,1,3.078-2.538c.354,0,.708,0,1.091,0" transform="translate(-499.754 -342.571)" fill="#2d2a26"/>
      <path id="Path_85" data-name="Path 85" d="M163.2,515.468a1.061,1.061,0,1,1-1.067,1.068,1.054,1.054,0,0,1,1.067-1.068" transform="translate(-156.805 -498.523)" fill="#2d2a26"/>
      <path id="Path_86" data-name="Path 86" d="M421.069,515.468a1.06,1.06,0,1,1-1.056,1.053,1.059,1.059,0,0,1,1.056-1.053" transform="translate(-406.206 -498.523)" fill="#2d2a26"/>
    </g>
  </g>
</svg>
