<svg xmlns="http://www.w3.org/2000/svg" width="36.5" height="36.5" viewBox="0 0 36.5 36.5">
  <path id="Icon_ionic-logo-facebook" data-name="Icon ionic-logo-facebook" d="M38.985,4.5H6.515A2.016,2.016,0,0,0,4.5,6.515v32.47A2.016,2.016,0,0,0,6.515,41H22.75V26.552H18.387V21.229H22.75V17.294c0-4.715,3.27-7.281,7.481-7.281,2.015,0,4.182.152,4.686.219v4.924H31.561c-2.291,0-2.728,1.084-2.728,2.68v3.393h5.456l-.713,5.323H28.833V41H38.985A2.016,2.016,0,0,0,41,38.985V6.515A2.016,2.016,0,0,0,38.985,4.5Z" transform="translate(-4.5 -4.5)" fill="#f15d3b"/>
</svg>
