<svg id="Tagline" xmlns="http://www.w3.org/2000/svg" xmlns:xlink="http://www.w3.org/1999/xlink" width="67.23" height="19.293" viewBox="0 0 67.23 19.293">
  <defs>
    <clipPath id="clip-path">
      <rect id="Rectangle_6" data-name="Rectangle 6" width="67.23" height="19.293" fill="#2d2a26"/>
    </clipPath>
  </defs>
  <g id="Group_3" data-name="Group 3" clip-path="url(#clip-path)">
    <path id="Path_7" data-name="Path 7" d="M0,3.866C0,1.588,1.17,0,3.374,0A2.722,2.722,0,0,1,6.31,2.6l-1.014.1A1.914,1.914,0,0,0,3.322.846C1.87.846,1.045,2.058,1.045,3.855c0,1.734.784,3.05,2.3,3.05A2.008,2.008,0,0,0,5.349,5.1l.961.167A2.844,2.844,0,0,1,3.343,7.773C1.045,7.773,0,6.017,0,3.866" transform="translate(0 0)" fill="#2d2a26"/>
    <path id="Path_8" data-name="Path 8" d="M30.684,3.887c0-2.424,1.337-3.887,3.4-3.887s3.385,1.463,3.385,3.887c0,2.4-1.337,3.886-3.385,3.886s-3.4-1.515-3.4-3.886m5.736,0c0-1.9-.857-3.051-2.34-3.051s-2.35,1.149-2.35,3.051c0,1.859.867,3.05,2.35,3.05s2.34-1.159,2.34-3.05" transform="translate(-23.437 0)" fill="#2d2a26"/>
    <path id="Path_9" data-name="Path 9" d="M65.793.753h1.2l3.144,5.4a5.963,5.963,0,0,1,.459.951h.021c-.021-.261-.031-.533-.031-.982V.753h.888V8.17h-1.2l-3.145-5.4a5.247,5.247,0,0,1-.459-.951H66.65c.021.261.031.533.031.982V8.17h-.888Z" transform="translate(-50.255 -0.575)" fill="#2d2a26"/>
    <path id="Path_10" data-name="Path 10" d="M98.688.753h1.2l3.144,5.4a5.961,5.961,0,0,1,.459.951h.021c-.021-.261-.031-.533-.031-.982V.753h.888V8.17h-1.2l-3.145-5.4a5.246,5.246,0,0,1-.459-.951h-.021c.021.261.031.533.031.982V8.17h-.888Z" transform="translate(-75.381 -0.575)" fill="#2d2a26"/>
    <path id="Path_11" data-name="Path 11" d="M136.253,7.334V8.17h-4.67V.753h4.6v.836h-3.6V3.949H136v.836h-3.427V7.334Z" transform="translate(-100.507 -0.575)" fill="#2d2a26"/>
    <path id="Path_12" data-name="Path 12" d="M156.21,3.866c0-2.278,1.17-3.866,3.374-3.866a2.722,2.722,0,0,1,2.936,2.6l-1.014.1A1.914,1.914,0,0,0,159.532.846c-1.452,0-2.277,1.212-2.277,3.009,0,1.734.784,3.05,2.3,3.05A2.008,2.008,0,0,0,161.559,5.1l.961.167a2.844,2.844,0,0,1-2.967,2.508c-2.3,0-3.343-1.755-3.343-3.907" transform="translate(-119.318 0)" fill="#2d2a26"/>
    <path id="Path_13" data-name="Path 13" d="M191,1.589h-2.329V8.17h-.993V1.589h-2.329V.753H191Z" transform="translate(-141.574 -0.575)" fill="#2d2a26"/>
    <rect id="Rectangle_4" data-name="Rectangle 4" width="0.993" height="7.417" transform="translate(50.571 0.178)" fill="#2d2a26"/>
    <path id="Path_14" data-name="Path 14" d="M227.176.753h1.2l3.145,5.4a5.956,5.956,0,0,1,.459.951H232c-.021-.261-.031-.533-.031-.982V.753h.888V8.17h-1.2l-3.145-5.4a5.246,5.246,0,0,1-.459-.951h-.021c.021.261.031.533.031.982V8.17h-.888Z" transform="translate(-173.524 -0.575)" fill="#2d2a26"/>
    <path id="Path_15" data-name="Path 15" d="M257.638,3.887c0-2.267,1.222-3.887,3.416-3.887a2.636,2.636,0,0,1,2.831,2.246l-.982.136a1.771,1.771,0,0,0-1.88-1.546c-1.515,0-2.371,1.254-2.371,3.061,0,1.692.773,3.029,2.382,3.029a2.036,2.036,0,0,0,2.1-2.246V4.555H260.96V3.719h3.061V7.6H263.3L263.165,6.4a2.348,2.348,0,0,1-2.278,1.369c-2.027,0-3.249-1.651-3.249-3.886" transform="translate(-196.792 0)" fill="#2d2a26"/>
    <path id="Path_16" data-name="Path 16" d="M5.255,54.914c0,.951-.575,2.037-2.455,2.037H0V49.534H2.581c1.954,0,2.465,1.1,2.465,1.974A1.625,1.625,0,0,1,3.8,53.117a1.691,1.691,0,0,1,1.452,1.8M.993,50.37v2.382H2.581c1.275,0,1.483-.658,1.483-1.17,0-.585-.282-1.212-1.483-1.212Zm3.28,4.45c0-.69-.407-1.233-1.421-1.233H.993v2.528H2.748c1.16,0,1.525-.627,1.525-1.3" transform="translate(0 -37.836)" fill="#2d2a26"/>
    <path id="Path_17" data-name="Path 17" d="M29.423,49.534V54.3a1.862,1.862,0,1,0,3.719,0V49.534h.992v4.827a2.6,2.6,0,0,1-2.852,2.768,2.6,2.6,0,0,1-2.852-2.768V49.534Z" transform="translate(-21.716 -37.836)" fill="#2d2a26"/>
    <rect id="Rectangle_5" data-name="Rectangle 5" width="0.993" height="7.417" transform="translate(14.348 11.698)" fill="#2d2a26"/>
    <path id="Path_18" data-name="Path 18" d="M73.794,49.534h.993v6.581h3.427v.836H73.794Z" transform="translate(-56.366 -37.835)" fill="#2d2a26"/>
    <path id="Path_19" data-name="Path 19" d="M97.8,49.534h2.434a3.411,3.411,0,0,1,3.521,3.7,3.448,3.448,0,0,1-3.542,3.719H97.8Zm2.393,6.581a2.585,2.585,0,0,0,2.507-2.883c0-1.651-.888-2.863-2.486-2.863H98.8v5.746Z" transform="translate(-74.705 -37.836)" fill="#2d2a26"/>
    <path id="Path_20" data-name="Path 20" d="M134.086,56.115v.836h-4.67V49.534h4.6v.836h-3.6V52.73h3.427v.836h-3.427v2.549Z" transform="translate(-98.852 -37.835)" fill="#2d2a26"/>
    <path id="Path_21" data-name="Path 21" d="M158.972,53.87h-1.5v3.082h-.993V49.534h2.748c1.943,0,2.456,1.086,2.456,2.173a1.986,1.986,0,0,1-1.672,2.027l1.9,3.217H160.79Zm-1.5-.836h1.64c1.15,0,1.525-.585,1.525-1.327,0-.763-.386-1.337-1.525-1.337h-1.64Z" transform="translate(-119.52 -37.836)" fill="#2d2a26"/>
    <path id="Path_22" data-name="Path 22" d="M182.785,54.172l1-.146a1.863,1.863,0,0,0,2.006,1.713c.8,0,1.651-.335,1.651-1.274,0-.878-.544-1.159-1.41-1.337l-1.076-.22A1.99,1.99,0,0,1,183.1,50.86c0-1.243,1-2.079,2.58-2.079,1.473,0,2.6.658,2.748,2.11l-.992.209a1.585,1.585,0,0,0-1.776-1.536c-.908,0-1.535.45-1.535,1.2,0,.721.386,1.1,1.212,1.275l1.086.23c1.149.24,2.048.752,2.048,2.1,0,1.149-.857,2.184-2.706,2.184-1.891,0-2.852-1.024-2.977-2.382" transform="translate(-139.617 -37.26)" fill="#2d2a26"/>
  </g>
</svg>
