<svg id="Urbk" xmlns="http://www.w3.org/2000/svg" xmlns:xlink="http://www.w3.org/1999/xlink" width="81" height="59.127" viewBox="0 0 81 59.127">
  <defs>
    <clipPath id="clip-path">
      <rect id="Rectangle_13" data-name="Rectangle 13" width="81" height="25.274" fill="none"/>
    </clipPath>
  </defs>
  <path id="Path_66" data-name="Path 66" d="M.86,18.14,6.6,16.732l6.135,7.624-2.025,1.382Zm12.615,6.216,6.135-7.624,5.735,1.408-9.846,7.6Zm6.29-8.105V.853l1.09.589,4.7,16.224Zm-14.5-14.8L6.446.84v15.4L.657,17.666ZM19.258,0V16.359L13.1,24,6.954,16.366V.014L4.835,1.1.088,17.808l-.088.3.23.183,10.462,8.071L13.1,24.715l2.411,1.652L25.975,18.3l.237-.183-.088-.3L21.309,1.2l-.027-.1Z" transform="translate(27.394 0)" fill="#101820"/>
  <g id="Group_7" data-name="Group 7" transform="translate(0 33.853)">
    <g id="Group_6" data-name="Group 6" clip-path="url(#clip-path)">
      <path id="Path_67" data-name="Path 67" d="M387.256,30.7c0,5.295-3.545,9.288-8.457,9.288-4.93,0-8.488-3.993-8.488-9.288V17.056h-1.923V30.7c0,6.392,4.476,11.212,10.411,11.212,5.917,0,10.38-4.82,10.38-11.212V17.056h-1.923Z" transform="translate(-368.388 -17.056)" fill="#030404"/>
      <path id="Path_68" data-name="Path 68" d="M606.783,77.184a5.455,5.455,0,0,0-5.4,3.43V77.6h-1.819V95.508h1.854V87.32c0-3.762.924-8.247,5.328-8.247a8.148,8.148,0,0,1,1.648.2l.322.067V77.363l-.223-.037a10.4,10.4,0,0,0-1.712-.142" transform="translate(-574.45 -70.652)" fill="#030404"/>
      <path id="Path_69" data-name="Path 69" d="M720.575,23.588a8.056,8.056,0,0,0-7.239,3.739V17.056h-1.854V41.913h1.854V38.646a8.127,8.127,0,0,0,7.239,3.684c5.149,0,8.745-3.854,8.745-9.371s-3.6-9.371-8.745-9.371m6.822,9.371c0,4.487-2.891,7.621-7.031,7.621-4.247,0-7.1-3.063-7.1-7.621s2.853-7.621,7.1-7.621c4.139,0,7.031,3.134,7.031,7.621" transform="translate(-674.207 -17.056)" fill="#030404"/>
      <path id="Path_70" data-name="Path 70" d="M908.029,31.866,915.854,24h-2.63L903.386,34.01V17.056h-1.854V41.913h1.854v-5.4l3.359-3.359,6.948,8.762h2.424Z" transform="translate(-843.61 -17.056)" fill="#030404"/>
      <path id="Path_71" data-name="Path 71" d="M1061.481,19.906a2.85,2.85,0,1,1,2.85,2.824,2.806,2.806,0,0,1-2.85-2.824m5.187-.013a2.337,2.337,0,1,0-4.673.013,2.337,2.337,0,1,0,4.673-.013m-3.312-1.438h.989c.655,0,1.078.27,1.078.847v.013a.743.743,0,0,1-.578.757l.744,1.194h-.642l-.681-1.091h-.295v1.091h-.616Zm.975,1.3c.322,0,.488-.141.488-.411v-.013c0-.3-.18-.4-.488-.4h-.359v.822Z" transform="translate(-986.181 -17.056)" fill="#010101"/>
    </g>
  </g>
</svg>
