<svg id="Velta" xmlns="http://www.w3.org/2000/svg" width="81" height="56.596" viewBox="0 0 81 56.596">
  <g id="Group_24" data-name="Group 24" transform="translate(0 46.714)">
    <path id="Path_101" data-name="Path 101" d="M16.938.048h-2v9.76H26.146V8.168H16.938V5.746h9.208V4.107H16.938V1.689h9.208V.048Z" transform="translate(4.743 0.015)" fill="#101820"/>
    <path id="Path_102" data-name="Path 102" d="M28.554.048v9.76H39.759V8.082H30.552V.048Z" transform="translate(9.065 0.015)" fill="#101820"/>
    <path id="Path_103" data-name="Path 103" d="M12.212,0,7.238,9.456,2.266,0H0L5.2,9.883H9.279L14.478,0Z" transform="translate(0 0)" fill="#101820"/>
    <path id="Path_104" data-name="Path 104" d="M55.484,0,50.1,9.883h2.348L57.6.428l5.151,9.454H65.1L59.711,0Z" transform="translate(15.905 0)" fill="#101820"/>
    <path id="Path_105" data-name="Path 105" d="M45.883.048h-7.44V1.774h5.442V9.808h2V1.774h5.452V.048Z" transform="translate(12.205 0.015)" fill="#101820"/>
  </g>
  <g id="Group_25" data-name="Group 25" transform="translate(20.374 0)">
    <path id="Path_106" data-name="Path 106" d="M0,0,5,13.088h5.134L5.137,0Z" transform="translate(0 0)" fill="#101820"/>
    <path id="Path_107" data-name="Path 107" d="M3.416,4.413l5,13.09h5l-5-13.09Z" transform="translate(6.716 8.674)" fill="#101820"/>
    <path id="Path_108" data-name="Path 108" d="M15.153,0l-5,13.087h5.137L20.289,0Z" transform="translate(19.962 0)" fill="#101820"/>
    <path id="Path_109" data-name="Path 109" d="M11.783,4.413l-5,13.09h5l5-13.09Z" transform="translate(13.339 8.674)" fill="#101820"/>
  </g>
</svg>
